<mxfile host="app.diagrams.net" modified="2023-03-06T08:03:02.903Z" agent="5.0 (Windows NT 10.0; Win64; x64) AppleWebKit/537.36 (KHTML, like Gecko) Chrome/110.0.0.0 Safari/537.36" etag="CXSbz5kBS9Pla8jzEEVK" version="21.0.2" type="github">
  <diagram name="第 1 页" id="FSW_L2Zyr11U5yChRJj3">
    <mxGraphModel dx="794" dy="484" grid="1" gridSize="10" guides="1" tooltips="1" connect="1" arrows="1" fold="1" page="1" pageScale="1" pageWidth="827" pageHeight="1169" math="0" shadow="0">
      <root>
        <mxCell id="0" />
        <mxCell id="1" parent="0" />
        <mxCell id="ASiE3uXQriP4OqnNiTCk-38" value="开始" style="strokeWidth=2;html=1;shape=mxgraph.flowchart.terminator;whiteSpace=wrap;" vertex="1" parent="1">
          <mxGeometry x="340" y="70" width="100" height="60" as="geometry" />
        </mxCell>
        <mxCell id="ASiE3uXQriP4OqnNiTCk-42" value="设备" style="strokeWidth=2;html=1;shape=mxgraph.flowchart.decision;whiteSpace=wrap;" vertex="1" parent="1">
          <mxGeometry x="340" y="160" width="100" height="100" as="geometry" />
        </mxCell>
        <mxCell id="ASiE3uXQriP4OqnNiTCk-44" value="报警处置" style="text;html=1;strokeColor=none;fillColor=#FF6666;align=center;verticalAlign=middle;whiteSpace=wrap;rounded=0;" vertex="1" parent="1">
          <mxGeometry x="260" y="30" width="60" height="30" as="geometry" />
        </mxCell>
      </root>
    </mxGraphModel>
  </diagram>
</mxfile>
